<?xml version="1.0" encoding="utf-8"?>
<!-- Generator: Adobe Illustrator 16.0.0, SVG Export Plug-In . SVG Version: 6.00 Build 0)  -->
<!DOCTYPE svg PUBLIC "-//W3C//DTD SVG 1.1//EN" "http://www.w3.org/Graphics/SVG/1.1/DTD/svg11.dtd">
<svg version="1.1" id="Capa_1" xmlns="http://www.w3.org/2000/svg" xmlns:xlink="http://www.w3.org/1999/xlink" x="0px" y="0px"
	 width="512px" height="512px" viewBox="0 0 512 512" enable-background="new 0 0 512 512" xml:space="preserve">
<rect x="77.5" y="114.5" fill="#FFFFFF" width="325" height="266"/>
<g>
	<path fill="#CE0505" d="M437.105,74.895c-99.857-99.857-262.344-99.867-362.21,0c-99.867,99.866-99.857,262.343,0,362.21
		c99.856,99.866,262.343,99.866,362.21,0C536.962,337.238,536.962,174.751,437.105,74.895z M356.999,356.999
		c-7.693,7.693-20.164,7.693-27.857,0L256,283.857l-76.619,76.619c-7.693,7.693-20.165,7.693-27.858,0s-7.693-20.164,0-27.857
		L228.142,256l-73.141-73.142c-7.693-7.693-7.693-20.174,0-27.857c7.693-7.693,20.164-7.693,27.857,0L256,228.142l69.654-69.654
		c7.693-7.693,20.164-7.693,27.857,0s7.693,20.165,0,27.858L283.857,256l73.142,73.142
		C364.692,336.835,364.692,349.306,356.999,356.999z"/>
</g>
</svg>
